<?xml version="1.0" encoding="utf-8"?>
<!-- Generator: Adobe Illustrator 16.0.0, SVG Export Plug-In . SVG Version: 6.00 Build 0)  -->
<!DOCTYPE svg PUBLIC "-//W3C//DTD SVG 1.1//EN" "http://www.w3.org/Graphics/SVG/1.1/DTD/svg11.dtd">
<svg version="1.1" xmlns="http://www.w3.org/2000/svg" xmlns:xlink="http://www.w3.org/1999/xlink" x="0px" y="0px" width="237px"
	 height="133.043px" viewBox="0 0 237 133.043" enable-background="new 0 0 237 133.043" xml:space="preserve">
<g id="Layer_1">
	<rect y="0.043" fill="#8C0909" width="21" height="10"/>
	<rect x="221" y="122.043" fill="#8C0909" width="16" height="11"/>
	<polygon fill="#B91818" points="122.284,0.043 0.013,0.043 236.896,133.043 237,133.043 237,64.958 	"/>
	<g>
		<path fill="#FFFFFF" d="M130.512,27.753c0.199,0.261,0.367,0.751,0.352,1.088c-2.67,0.967-5.5,1.647-7.113,0.739
			c-1.05-0.592-1.342-1.522-0.925-2.351c-4.644,0.918-7.14-2.414-1.728-5.618l8.242-4.896c-3.24-0.17-7.735-2.281-9.108,0.158
			c-0.539,0.957,0.261,1.95,0.261,1.95l-1.439,0.845c-0.746-0.914-1.268-2.443-0.508-3.795c2.251-3.995,8.147-0.205,13.237-0.6
			l0.033,2.267l-9.741,5.757c-3.882,2.287-0.898,4.14,3.09,2.062l11.271-6.675l1.951,1.098l-13.001,7.729
			c-0.883,0.516-0.808,0.953-0.377,1.195c0.863,0.486,2.962-0.037,5.288-0.877L130.512,27.753z"/>
		<path fill="#FFFFFF" d="M139.727,32.944c0.199,0.26,0.368,0.75,0.352,1.087c-2.67,0.967-5.499,1.647-7.112,0.739
			c-1.576-0.888-1.407-2.548,0.231-3.527l5.016-2.981c1.658-0.97,0.6-2.208-4.484-0.154l-5.91,3.517l-1.97-1.109l10.704-6.326
			l1.951,1.099l-1.45,0.863c1.547-0.463,2.682-0.417,3.525,0.059c1.089,0.613,1.293,2.137-0.386,3.143l-5.593,3.35
			c-0.884,0.516-0.809,0.953-0.378,1.196c0.863,0.485,2.963-0.038,5.288-0.878L139.727,32.944z"/>
		<path fill="#FFFFFF" d="M148.94,38.132c0.2,0.261,0.368,0.751,0.352,1.088c-2.669,0.967-5.499,1.647-7.112,0.738
			c-0.994-0.56-1.299-1.424-0.971-2.227c-1.37,0.241-2.631,0.198-3.42-0.245c-1.575-0.888-1.406-2.548,0.232-3.527l5.402-3.185
			c1.628-0.961,3.556-0.963,4.606-0.371c0.807,0.455,1.181,1.283,1.211,2.017l5.66-3.336l1.951,1.099l-13.038,7.707
			c-0.883,0.515-0.809,0.953-0.377,1.195c0.863,0.486,2.961-0.037,5.288-0.877L148.94,38.132z M139.425,35.417
			c-0.883,0.516-0.808,0.953-0.377,1.196c0.825,0.465,2.544,0.222,4.813-1.045l2.919-1.717l-0.019-0.011
			c1.95-1.225,0.131-2.866-1.943-1.639L139.425,35.417z"/>
		<path fill="#FFFFFF" d="M150.437,39.519l-0.378,0.231c-1.787,1.069-1.498,2.221-0.297,2.896c1.37,0.772,3.899,0.491,6.227-0.349
			l0.215-0.076c0.2,0.261,0.368,0.751,0.352,1.088c-2.67,0.967-5.837,1.457-8.051,0.211c-2.307-1.3-2.279-3.805,0.113-5.201
			l4.02-2.356c1.629-0.961,3.351-1.078,4.926-0.19c1.595,0.897,1.847,2.818-0.218,4.028l-0.556,0.329
			C153.898,41.838,151.397,40.751,150.437,39.519z M151.539,38.879c0.584,0.674,1.819,1.419,3.654,0.353l0.557-0.328
			c2.305-1.371,0.496-2.811-1.719-1.512L151.539,38.879z"/>
		<path fill="#FFFFFF" d="M161.713,42.582c0.446-0.268,0.574-0.714,0.511-1.169l-0.084-0.468c-2.751,1.243-4.032,1.807-5.582,2.367
			c-0.177-0.347-0.321-0.75-0.353-1.088c2.122-0.783,4.215-1.778,5.764-2.512l-0.041-0.32c-0.188-1.291,0.529-2.346,2.196-2.716
			l0.39,1.677c-0.605,0.153-0.827,0.548-0.747,1.063l0.349,1.926c0.205,1.129,0.133,2.002-1.207,2.804l-3.875,2.315
			c-0.883,0.516-0.809,0.953-0.377,1.196c0.863,0.486,2.962-0.038,5.288-0.877l0.216-0.076c0.199,0.261,0.367,0.751,0.352,1.087
			c-2.67,0.968-5.5,1.648-7.113,0.739c-1.575-0.888-1.406-2.548,0.232-3.526L161.713,42.582z"/>
		<path fill="#FFFFFF" d="M92.982,25.605c1.747-1.043,3.445-1.074,4.515-0.472c1.444,0.813,1.944,2.603,0.952,4.366
			c-0.434,0.769-1.186,1.531-2.268,2.182c-3.049,1.816-6.015,1.555-8.098,0.383c-0.394-0.223-0.729-0.461-1.054-0.718l-1.082,0.65
			c-2.284,1.333-2.228,3.119-0.896,3.869c1.933,1.089,4.388,0.767,6.714-0.073l0.215-0.076c0.24,0.233,0.409,0.724,0.353,1.088
			c-2.67,0.967-5.519,1.636-8.426-0.002c-2.758-1.553-2.085-4.633,0.615-6.227l1.152-0.685c-1.11-1.713-1.146-3.711-0.27-5.268
			c0.74-1.313,2.109-2.297,4.057-2.509l-0.007,1.504c-1.214,0.181-2.134,0.85-2.641,1.75c-0.613,1.088-0.625,2.514,0.181,3.758
			L92.982,25.605z M88.813,30.769c3.039,1.711,7.102-0.325,8.126-2.145c0.401-0.713,0.339-1.392-0.393-1.803
			c-0.544-0.307-1.425-0.234-2.566,0.432l-5.561,3.294L88.813,30.769z"/>
		<path fill="#FFFFFF" d="M95.34,40.993c-4.496,1.841-8.328-2.368-3.493-5.204l1.657-0.97l1.897-1.13
			c2.224-1.318,3.726-1.264,5.227-0.418c1.838,1.035,1.838,3.58-0.495,4.959l-3.624,2.136c0.986,0.53,2.338,0.674,3.759,0.214
			l0.215-0.076c0.2,0.261,0.368,0.751,0.352,1.088c-1.659,0.621-3.898,0.299-5.063-0.355L95.34,40.993z M96.15,38.237l0.095,0.053
			l2.799-1.636c2.323-1.361,0.964-3.337-1.716-1.781l-1.836,1.066l-2.93,1.735c-2.303,1.371-0.24,2.929,1.566,1.87l0.04-0.027
			c-0.007-0.25,0.045-0.518,0.183-0.762C94.71,38.118,95.513,37.877,96.15,38.237z"/>
		<path fill="#FFFFFF" d="M109.696,45.693c0.199,0.26,0.368,0.75,0.352,1.087c-2.67,0.967-5.499,1.647-7.112,0.738
			c-1.576-0.888-1.408-2.547,0.232-3.526l5.015-2.982c1.657-0.969,0.601-2.207-4.485-0.153l-5.908,3.517l-1.971-1.109l10.704-6.326
			l1.951,1.099l-1.45,0.863c1.547-0.464,2.682-0.417,3.525,0.058c1.088,0.613,1.293,2.137-0.387,3.144l-5.592,3.35
			c-0.883,0.515-0.809,0.952-0.377,1.195c0.862,0.486,2.961-0.037,5.287-0.877L109.696,45.693z"/>
		<path fill="#FFFFFF" d="M107.334,47.92l1.578,0.049c0,0-0.139,0.86,0.518,1.229c1.858,1.047,3.495-2.825,5.405-4.418
			c-1.212,0.528-2.959,1.348-4.784,2.001c-0.176-0.347-0.319-0.749-0.352-1.087c2.926-1.071,6.126-2.629,7.557-3.282l1.02,1.612
			c-2.605,1.818-4.081,4.744-5.746,6.253c1.065-0.093,2.352-0.356,3.539-0.8l0.216-0.075c0.239,0.233,0.408,0.723,0.352,1.087
			c-2.425,0.883-5.282,1.35-7.419,0.492c-0.019-0.011-0.048-0.002-0.066-0.013c-0.198-0.087-0.378-0.163-0.565-0.27
			C106.803,49.697,107.334,47.92,107.334,47.92z"/>
		<path fill="#FFFFFF" d="M121.632,44.21l1.764,0.992l3.635-2.152l1.951,1.099l-3.635,2.152l1.613,0.909l-1.091,0.621l-1.595-0.897
			l-8.294,4.941c-0.883,0.515-0.808,0.953-0.377,1.196c0.863,0.485,2.962-0.038,5.288-0.878l0.216-0.075
			c0.199,0.26,0.367,0.751,0.352,1.087c-2.67,0.968-5.5,1.647-7.113,0.739c-1.575-0.888-1.406-2.547,0.232-3.526l7.745-4.583
			l-1.782-1.004L121.632,44.21z"/>
		<path fill="#FFFFFF" d="M126.615,52.478c0.446-0.268,0.574-0.715,0.511-1.171l-0.083-0.467c-2.752,1.243-4.032,1.806-5.583,2.366
			c-0.176-0.347-0.32-0.748-0.352-1.087c2.121-0.783,4.214-1.778,5.763-2.512l-0.041-0.32c-0.188-1.292,0.529-2.346,2.196-2.716
			l0.391,1.677c-0.605,0.153-0.827,0.547-0.747,1.062l0.349,1.926c0.205,1.129,0.132,2.003-1.208,2.805l-3.874,2.315
			c-0.884,0.515-0.809,0.952-0.378,1.195c0.864,0.486,2.962-0.037,5.289-0.877l0.215-0.075c0.199,0.26,0.367,0.75,0.352,1.088
			c-2.67,0.967-5.499,1.646-7.112,0.738c-1.576-0.888-1.407-2.547,0.231-3.527L126.615,52.478z"/>
		<path fill="#FFFFFF" d="M138.276,61.788c0.2,0.261,0.368,0.751,0.352,1.088c-2.67,0.967-5.499,1.646-7.112,0.738
			c-1.238-0.697-1.394-1.872-0.613-2.815c-1.445,0.371-3.195,0.671-4.265,0.068c-1.294-0.729-1.058-2.201,0.909-3.368l7.556-4.466
			l1.951,1.099l-7.548,4.495c-0.477,0.275-1.377,0.732-1.006,1.214c0.28,0.38,1.848,0.274,4.091-0.242l6.883-4.104l1.95,1.099
			l-8.273,4.952c-0.883,0.516-0.809,0.953-0.377,1.196c0.863,0.485,2.961-0.038,5.287-0.877L138.276,61.788z"/>
		<path fill="#FFFFFF" d="M139.395,63.406c-1.787,1.068-1.498,2.221-0.297,2.896c1.37,0.771,3.899,0.491,6.227-0.349l0.215-0.075
			c0.199,0.26,0.368,0.75,0.352,1.087c-2.67,0.967-5.838,1.456-8.051,0.21c-2.308-1.299-2.279-3.805,0.112-5.199l4.021-2.357
			c1.629-0.961,3.35-1.078,4.926-0.191c1.595,0.898,1.846,2.819-0.218,4.029l-0.557,0.329l-1.595-0.898l0.557-0.329
			c2.304-1.371,0.495-2.81-1.719-1.512L139.395,63.406z"/>
		<path fill="#FFFFFF" d="M150.888,60.686l1.764,0.993l3.635-2.153l1.95,1.099l-3.634,2.153l1.613,0.908l-1.092,0.621l-1.594-0.897
			l-8.294,4.941c-0.883,0.516-0.808,0.953-0.377,1.196c0.863,0.485,2.961-0.038,5.288-0.878l0.215-0.075
			c0.2,0.261,0.368,0.751,0.353,1.088c-2.67,0.967-5.5,1.646-7.113,0.738c-1.576-0.888-1.406-2.547,0.232-3.526l7.745-4.583
			l-1.783-1.004L150.888,60.686z"/>
		<path fill="#FFFFFF" d="M155.185,71.31c0.2,0.261,0.368,0.751,0.352,1.088c-2.67,0.967-5.499,1.646-7.112,0.738
			c-1.576-0.888-1.407-2.547,0.232-3.527l7.745-4.582l1.951,1.099l-8.294,4.941c-0.883,0.515-0.809,0.953-0.377,1.196
			c0.863,0.485,2.961-0.038,5.287-0.877L155.185,71.31z M160.434,62.999c0.639,0.359,0.859,1.15,0.5,1.789
			c-0.359,0.638-1.14,0.84-1.778,0.48c-0.637-0.359-0.851-1.122-0.491-1.759C159.023,62.871,159.797,62.639,160.434,62.999z"/>
		<path fill="#FFFFFF" d="M158.542,76.585c-4.497,1.841-8.328-2.367-3.493-5.204l1.657-0.97l1.896-1.13
			c2.225-1.317,3.726-1.263,5.227-0.418c1.838,1.035,1.839,3.58-0.495,4.96l-3.624,2.135c0.986,0.53,2.339,0.675,3.759,0.214
			l0.216-0.075c0.2,0.26,0.368,0.75,0.352,1.087c-1.659,0.622-3.899,0.3-5.063-0.355L158.542,76.585z M159.353,73.83l0.094,0.053
			l2.799-1.636c2.323-1.36,0.965-3.336-1.715-1.781l-1.836,1.066l-2.93,1.735c-2.304,1.371-0.24,2.929,1.566,1.87l0.04-0.026
			c-0.008-0.251,0.045-0.519,0.182-0.763C157.912,73.71,158.715,73.47,159.353,73.83z"/>
		<path fill="#FFFFFF" d="M172.898,81.286c0.199,0.261,0.368,0.751,0.352,1.087c-2.67,0.967-5.5,1.647-7.113,0.738
			c-1.575-0.887-1.406-2.547,0.232-3.525l5.015-2.982c1.658-0.97,0.601-2.207-4.484-0.154l-5.909,3.518l-1.971-1.109l10.705-6.327
			l1.951,1.099l-1.45,0.863c1.546-0.464,2.681-0.418,3.524,0.059c1.089,0.612,1.293,2.137-0.386,3.143l-5.593,3.35
			c-0.883,0.516-0.808,0.953-0.376,1.196c0.862,0.485,2.961-0.038,5.287-0.878L172.898,81.286z"/>
	</g>
	<polygon fill="#FFFFFF" points="113.881,0 112.096,0 113.451,0.764 	"/>
	
		<rect x="116.974" y="1.162" transform="matrix(-0.8712 -0.4908 0.4908 -0.8712 219.6959 61.9519)" fill="#FFFFFF" width="1.999" height="2"/>
	
		<rect x="121.656" y="3.799" transform="matrix(0.8713 0.4908 -0.4908 0.8713 18.146 -59.5838)" fill="#FFFFFF" width="2" height="2"/>
	
		<rect x="126.884" y="6.744" transform="matrix(0.8716 0.4902 -0.4902 0.8716 20.2161 -61.6965)" fill="#FFFFFF" width="2.001" height="2"/>
	
		<rect x="132.111" y="9.687" transform="matrix(0.8713 0.4907 -0.4907 0.8713 22.3763 -63.949)" fill="#FFFFFF" width="2.003" height="2.001"/>
	
		<rect x="137.341" y="12.632" transform="matrix(0.8714 0.4906 -0.4906 0.8714 24.4811 -66.118)" fill="#FFFFFF" width="2" height="2"/>
	
		<rect x="142.569" y="15.577" transform="matrix(0.8709 0.4914 -0.4914 0.8709 26.6728 -68.4067)" fill="#FFFFFF" width="2" height="1.999"/>
	
		<rect x="146.925" y="18.03" transform="matrix(0.8709 0.4914 -0.4914 0.8709 28.4428 -70.2336)" fill="#FFFFFF" width="1.999" height="2"/>
	
		<rect x="152.153" y="20.974" transform="matrix(0.8708 0.4916 -0.4916 0.8708 30.5895 -72.4552)" fill="#FFFFFF" width="1.997" height="1.999"/>
	
		<rect x="157.381" y="23.919" transform="matrix(0.8715 0.4904 -0.4904 0.8715 32.5751 -74.4715)" fill="#FFFFFF" width="2" height="2"/>
	
		<rect x="162.609" y="26.861" transform="matrix(0.8715 0.4904 -0.4904 0.8715 34.6905 -76.6572)" fill="#FFFFFF" width="2" height="2.002"/>
	
		<rect x="167.837" y="29.806" transform="matrix(0.8716 0.4902 -0.4902 0.8716 36.7802 -78.8111)" fill="#FFFFFF" width="2.001" height="2.001"/>
	
		<rect x="173.065" y="32.75" transform="matrix(0.8717 0.49 -0.49 0.8717 38.8702 -80.9672)" fill="#FFFFFF" width="2.001" height="2"/>
	
		<rect x="177.748" y="35.388" transform="matrix(0.8713 0.4908 -0.4908 0.8713 40.8687 -83.0446)" fill="#FFFFFF" width="2.001" height="2.001"/>
	
		<rect x="182.812" y="38.24" transform="matrix(0.8715 0.4904 -0.4904 0.8715 42.8669 -85.1028)" fill="#FFFFFF" width="2" height="1.999"/>
	
		<rect x="187.877" y="41.094" transform="matrix(0.8711 0.4912 -0.4912 0.8711 45.0272 -87.343)" fill="#FFFFFF" width="2.001" height="1.999"/>
	
		<rect x="193.105" y="44.036" transform="matrix(0.8712 0.491 -0.491 0.8712 47.122 -89.5035)" fill="#FFFFFF" width="2" height="2.001"/>
	
		<rect x="198.333" y="46.98" transform="matrix(0.8714 0.4906 -0.4906 0.8714 49.1777 -91.6233)" fill="#FFFFFF" width="2" height="2"/>
	
		<rect x="203.071" y="49.649" transform="matrix(0.8716 0.4902 -0.4902 0.8716 51.0348 -93.5394)" fill="#FFFFFF" width="2" height="1.999"/>
	
		<rect x="207.918" y="52.378" transform="matrix(0.8715 0.4904 -0.4904 0.8715 53.031 -95.6025)" fill="#FFFFFF" width="1.999" height="2"/>
	
		<rect x="213.145" y="55.323" transform="matrix(0.8713 0.4908 -0.4908 0.8713 55.2127 -97.8553)" fill="#FFFFFF" width="2" height="2"/>
	
		<rect x="218.372" y="58.266" transform="matrix(0.8715 0.4904 -0.4904 0.8715 57.2584 -99.9688)" fill="#FFFFFF" width="2" height="2.001"/>
	
		<rect x="223.602" y="61.211" transform="matrix(0.8711 0.491 -0.491 0.8711 59.4884 -102.2691)" fill="#FFFFFF" width="1.999" height="2"/>
	
		<rect x="228.83" y="64.155" transform="matrix(0.871 0.4912 -0.4912 0.871 61.644 -104.4926)" fill="#FFFFFF" width="1.999" height="2.001"/>
	
		<rect x="233.458" y="66.762" transform="matrix(0.8714 0.4906 -0.4906 0.8714 63.4006 -106.3119)" fill="#FFFFFF" width="2" height="2"/>
	<polygon fill="#FFFFFF" points="4.854,0.043 4.669,0.349 6.412,1.341 7.149,0.043 	"/>
	
		<rect x="10.259" y="1.891" transform="matrix(0.8714 0.4906 -0.4906 0.8714 2.8665 -5.1519)" fill="#FFFFFF" width="2" height="2.001"/>
	
		<rect x="14.996" y="4.559" transform="matrix(0.8713 0.4908 -0.4908 0.8713 4.7877 -7.1355)" fill="#FFFFFF" width="2.001" height="2.001"/>
	
		<rect x="20.061" y="7.412" transform="matrix(0.8711 0.4912 -0.4912 0.8711 6.8473 -9.2602)" fill="#FFFFFF" width="2" height="1.999"/>
	
		<rect x="25.126" y="10.263" transform="matrix(0.8715 0.4904 -0.4904 0.8715 8.8813 -11.3653)" fill="#FFFFFF" width="2" height="2.001"/>
	
		<rect x="30.3" y="13.177" transform="matrix(0.8713 0.4907 -0.4907 0.8713 10.9845 -13.5349)" fill="#FFFFFF" width="2" height="2.001"/>
	
		<rect x="35.527" y="16.122" transform="matrix(0.8713 0.4908 -0.4908 0.8713 13.1049 -15.7236)" fill="#FFFFFF" width="2.001" height="1.999"/>
	
		<rect x="40.755" y="19.066" transform="matrix(0.8712 0.491 -0.491 0.8712 15.2321 -17.9166)" fill="#FFFFFF" width="2" height="2"/>
	
		<rect x="45.112" y="21.518" transform="matrix(0.8714 0.4906 -0.4906 0.8714 16.9799 -19.7272)" fill="#FFFFFF" width="1.999" height="2.001"/>
	
		<rect x="50.339" y="24.463" transform="matrix(0.8713 0.4908 -0.4908 0.8713 19.1058 -21.9193)" fill="#FFFFFF" width="2.001" height="2"/>
	
		<rect x="55.568" y="27.408" transform="matrix(0.8713 0.4907 -0.4907 0.8713 21.218 -24.1022)" fill="#FFFFFF" width="2.001" height="2.001"/>
	
		<rect x="60.796" y="30.352" transform="matrix(0.8713 0.4907 -0.4907 0.8713 23.3382 -26.2904)" fill="#FFFFFF" width="1.999" height="2"/>
	
		<rect x="66.024" y="33.297" transform="matrix(0.8711 0.4911 -0.4911 0.8711 25.4811 -28.4939)" fill="#FFFFFF" width="2.001" height="1.999"/>
	
		<rect x="70.707" y="35.933" transform="matrix(0.8713 0.4907 -0.4907 0.8713 27.3492 -30.4342)" fill="#FFFFFF" width="2.001" height="2"/>
	
		<rect x="75.608" y="38.694" transform="matrix(0.8714 0.4906 -0.4906 0.8714 29.3293 -32.4805)" fill="#FFFFFF" width="1.999" height="2"/>
	
		<rect x="80.836" y="41.638" transform="matrix(0.8712 0.491 -0.491 0.8712 31.477 -34.6872)" fill="#FFFFFF" width="2.001" height="2"/>
	
		<rect x="86.064" y="44.582" transform="matrix(0.8713 0.4907 -0.4907 0.8713 33.5731 -36.8595)" fill="#FFFFFF" width="1.999" height="1.999"/>
	
		<rect x="90.965" y="47.34" transform="matrix(0.8714 0.4906 -0.4906 0.8714 35.5477 -38.9026)" fill="#FFFFFF" width="1.999" height="2.003"/>
	
		<rect x="95.648" y="49.98" transform="matrix(0.8711 0.4912 -0.4912 0.8711 37.5034 -40.8988)" fill="#FFFFFF" width="2" height="2"/>
	
		<rect x="100.876" y="52.923" transform="matrix(0.8715 0.4904 -0.4904 0.8715 39.5355 -43.0312)" fill="#FFFFFF" width="2.001" height="2"/>
	
		<rect x="106.105" y="55.868" transform="matrix(0.8714 0.4906 -0.4906 0.8714 41.6708 -45.2292)" fill="#FFFFFF" width="2.003" height="2.001"/>
	
		<rect x="111.333" y="58.812" transform="matrix(0.8714 0.4906 -0.4906 0.8714 43.79 -47.4172)" fill="#FFFFFF" width="2.002" height="2"/>
	
		<rect x="116.561" y="61.756" transform="matrix(0.8714 0.4906 -0.4906 0.8714 45.9066 -49.6031)" fill="#FFFFFF" width="2.002" height="2"/>
	
		<rect x="120.919" y="64.21" transform="matrix(0.871 0.4912 -0.4912 0.871 47.7576 -51.4799)" fill="#FFFFFF" width="1.998" height="2"/>
	
		<rect x="126.144" y="67.155" transform="matrix(0.8711 0.491 -0.491 0.8711 49.8485 -53.6489)" fill="#FFFFFF" width="1.999" height="1.998"/>
	
		<rect x="131.374" y="70.098" transform="matrix(0.8717 0.49 -0.49 0.8717 51.823 -55.7457)" fill="#FFFFFF" width="2.001" height="2.001"/>
	
		<rect x="136.602" y="73.042" transform="matrix(0.8712 0.491 -0.491 0.8712 54.0804 -58.021)" fill="#FFFFFF" width="2.001" height="2"/>
	
		<rect x="141.828" y="75.986" transform="matrix(0.8713 0.4908 -0.4908 0.8713 56.1738 -60.1915)" fill="#FFFFFF" width="2" height="2.001"/>
	
		<rect x="147.057" y="78.932" transform="matrix(0.8715 0.4904 -0.4904 0.8715 58.2243 -62.3361)" fill="#FFFFFF" width="2.001" height="2"/>
	
		<rect x="151.741" y="81.569" transform="matrix(0.8712 0.491 -0.491 0.8712 60.2171 -64.3555)" fill="#FFFFFF" width="2.001" height="2"/>
	
		<rect x="156.805" y="84.419" transform="matrix(0.8711 0.4912 -0.4912 0.8711 62.3057 -66.4974)" fill="#FFFFFF" width="2" height="2.001"/>
	
		<rect x="161.868" y="87.274" transform="matrix(0.8715 0.4904 -0.4904 0.8715 64.2184 -68.5277)" fill="#FFFFFF" width="2.001" height="1.999"/>
	
		<rect x="167.097" y="90.218" transform="matrix(0.8714 0.4906 -0.4906 0.8714 66.3644 -70.7328)" fill="#FFFFFF" width="2.003" height="2"/>
	
		<rect x="172.328" y="93.162" transform="matrix(0.8714 0.4907 -0.4907 0.8714 68.499 -72.9301)" fill="#FFFFFF" width="1.998" height="2"/>
	
		<rect x="177.064" y="95.829" transform="matrix(0.8714 0.4906 -0.4906 0.8714 70.4076 -74.9057)" fill="#FFFFFF" width="2" height="2"/>
	
		<rect x="181.912" y="98.56" transform="matrix(0.8715 0.4904 -0.4904 0.8715 72.3383 -76.9118)" fill="#FFFFFF" width="1.999" height="1.999"/>
	
		<rect x="187.139" y="101.504" transform="matrix(0.8713 0.4908 -0.4908 0.8713 74.531 -79.1457)" fill="#FFFFFF" width="2" height="1.999"/>
	
		<rect x="192.367" y="104.446" transform="matrix(0.8718 0.4899 -0.4899 0.8718 76.4453 -81.2053)" fill="#FFFFFF" width="2" height="2.002"/>
	
		<rect x="197.594" y="107.392" transform="matrix(0.8716 0.4902 -0.4902 0.8716 78.6395 -83.4397)" fill="#FFFFFF" width="2" height="2"/>
	
		<rect x="202.823" y="110.336" transform="matrix(0.8714 0.4905 -0.4905 0.8714 80.8116 -85.6605)" fill="#FFFFFF" width="1.997" height="2"/>
	
		<rect x="207.451" y="112.941" transform="matrix(0.8715 0.4904 -0.4904 0.8715 82.6743 -87.5891)" fill="#FFFFFF" width="1.999" height="2.001"/>
	
		<rect x="212.407" y="115.732" transform="matrix(0.8715 0.4904 -0.4904 0.8715 84.6799 -89.6609)" fill="#FFFFFF" width="1.999" height="2"/>
	
		<rect x="217.635" y="118.68" transform="matrix(0.8712 0.491 -0.491 0.8712 86.9261 -91.9274)" fill="#FFFFFF" width="2.001" height="1.997"/>
	
		<rect x="222.864" y="121.623" transform="matrix(0.8712 0.491 -0.491 0.8712 89.0453 -94.1154)" fill="#FFFFFF" width="2.001" height="2"/>
	
		<rect x="227.711" y="124.353" transform="matrix(0.8712 0.4909 -0.4909 0.8712 90.9808 -96.1247)" fill="#FFFFFF" width="1.997" height="1.999"/>
	
		<rect x="232.449" y="127.019" transform="matrix(0.8714 0.4905 -0.4905 0.8714 92.8034 -98.0471)" fill="#FFFFFF" width="1.997" height="2"/>
</g>
<g id="Layer_2">
	<g>
	</g>
	<g>
	</g>
	<g>
	</g>
	<g>
	</g>
	<g>
	</g>
	<g>
	</g>
	<g>
	</g>
	<g>
	</g>
	<g>
	</g>
	<g>
	</g>
	<g>
	</g>
	<g>
	</g>
	<g>
	</g>
	<g>
	</g>
	<g>
	</g>
</g>
</svg>
